<mxfile host="app.diagrams.net" modified="2021-06-03T10:41:02.160Z" agent="5.0 (Windows NT 10.0; Win64; x64) AppleWebKit/537.36 (KHTML, like Gecko) Chrome/90.0.4430.212 Safari/537.36" etag="YkFfDeop858NHlgx66RS" version="14.7.3" type="github">
  <diagram id="u9r8B9-wAxy0J2au7Yyd" name="Page-1">
    <mxGraphModel dx="1422" dy="737" grid="1" gridSize="10" guides="1" tooltips="1" connect="1" arrows="1" fold="1" page="1" pageScale="1" pageWidth="1169" pageHeight="827" math="0" shadow="0">
      <root>
        <mxCell id="0" />
        <mxCell id="1" parent="0" />
        <mxCell id="4W57FgkTOTyh-o_fhP_0-1" value="Person" style="rounded=0;whiteSpace=wrap;html=1;" vertex="1" parent="1">
          <mxGeometry x="510" y="165" width="120" height="60" as="geometry" />
        </mxCell>
        <mxCell id="4W57FgkTOTyh-o_fhP_0-2" value="Navn" style="ellipse;whiteSpace=wrap;html=1;" vertex="1" parent="1">
          <mxGeometry x="360" y="140" width="120" height="50" as="geometry" />
        </mxCell>
        <mxCell id="4W57FgkTOTyh-o_fhP_0-3" value="&lt;u&gt;CPR&lt;/u&gt;" style="ellipse;whiteSpace=wrap;html=1;" vertex="1" parent="1">
          <mxGeometry x="430" y="60" width="120" height="50" as="geometry" />
        </mxCell>
        <mxCell id="4W57FgkTOTyh-o_fhP_0-4" value="telefon_nr" style="ellipse;whiteSpace=wrap;html=1;" vertex="1" parent="1">
          <mxGeometry x="585" y="55" width="140" height="60" as="geometry" />
        </mxCell>
        <mxCell id="4W57FgkTOTyh-o_fhP_0-5" value="E-mail" style="ellipse;whiteSpace=wrap;html=1;" vertex="1" parent="1">
          <mxGeometry x="680" y="140" width="120" height="50" as="geometry" />
        </mxCell>
        <mxCell id="4W57FgkTOTyh-o_fhP_0-6" value="PrivatKunde" style="rounded=0;whiteSpace=wrap;html=1;" vertex="1" parent="1">
          <mxGeometry x="510" y="360" width="120" height="60" as="geometry" />
        </mxCell>
        <mxCell id="4W57FgkTOTyh-o_fhP_0-7" value="ErhvervsKunde" style="rounded=0;whiteSpace=wrap;html=1;" vertex="1" parent="1">
          <mxGeometry x="330" y="280" width="120" height="60" as="geometry" />
        </mxCell>
        <mxCell id="4W57FgkTOTyh-o_fhP_0-8" value="Ansat" style="rounded=0;whiteSpace=wrap;html=1;" vertex="1" parent="1">
          <mxGeometry x="720" y="330" width="120" height="60" as="geometry" />
        </mxCell>
        <mxCell id="4W57FgkTOTyh-o_fhP_0-9" value="&lt;u&gt;CVR&lt;/u&gt;" style="ellipse;whiteSpace=wrap;html=1;" vertex="1" parent="1">
          <mxGeometry x="160" y="350" width="110" height="50" as="geometry" />
        </mxCell>
        <mxCell id="4W57FgkTOTyh-o_fhP_0-10" value="Firmanavn" style="ellipse;whiteSpace=wrap;html=1;" vertex="1" parent="1">
          <mxGeometry x="155" y="270" width="120" height="55" as="geometry" />
        </mxCell>
        <mxCell id="4W57FgkTOTyh-o_fhP_0-11" value="FirmaNummer" style="ellipse;whiteSpace=wrap;html=1;" vertex="1" parent="1">
          <mxGeometry x="160" y="180" width="120" height="55" as="geometry" />
        </mxCell>
        <mxCell id="4W57FgkTOTyh-o_fhP_0-12" value="Kørekort" style="rounded=0;whiteSpace=wrap;html=1;" vertex="1" parent="1">
          <mxGeometry x="380" y="440" width="120" height="60" as="geometry" />
        </mxCell>
        <mxCell id="4W57FgkTOTyh-o_fhP_0-13" value="Type" style="ellipse;whiteSpace=wrap;html=1;" vertex="1" parent="1">
          <mxGeometry x="230" y="450" width="120" height="40" as="geometry" />
        </mxCell>
        <mxCell id="4W57FgkTOTyh-o_fhP_0-16" value="Dato" style="ellipse;whiteSpace=wrap;html=1;" vertex="1" parent="1">
          <mxGeometry x="360" y="570" width="120" height="50" as="geometry" />
        </mxCell>
        <mxCell id="4W57FgkTOTyh-o_fhP_0-17" value="Kørelærer" style="ellipse;whiteSpace=wrap;html=1;" vertex="1" parent="1">
          <mxGeometry x="510" y="570" width="120" height="50" as="geometry" />
        </mxCell>
        <mxCell id="4W57FgkTOTyh-o_fhP_0-18" value="Testforsøg" style="rounded=1;whiteSpace=wrap;html=1;" vertex="1" parent="1">
          <mxGeometry x="760" y="470" width="120" height="60" as="geometry" />
        </mxCell>
        <mxCell id="4W57FgkTOTyh-o_fhP_0-20" value="TestType" style="ellipse;whiteSpace=wrap;html=1;" vertex="1" parent="1">
          <mxGeometry x="700" y="560" width="110" height="50" as="geometry" />
        </mxCell>
        <mxCell id="4W57FgkTOTyh-o_fhP_0-21" value="Dato" style="ellipse;whiteSpace=wrap;html=1;" vertex="1" parent="1">
          <mxGeometry x="775" y="630" width="110" height="50" as="geometry" />
        </mxCell>
        <mxCell id="4W57FgkTOTyh-o_fhP_0-22" value="Køretimer" style="ellipse;whiteSpace=wrap;html=1;" vertex="1" parent="1">
          <mxGeometry x="210" y="555" width="120" height="60" as="geometry" />
        </mxCell>
        <mxCell id="4W57FgkTOTyh-o_fhP_0-24" value="" style="endArrow=none;html=1;" edge="1" parent="1" source="4W57FgkTOTyh-o_fhP_0-1" target="4W57FgkTOTyh-o_fhP_0-3">
          <mxGeometry width="50" height="50" relative="1" as="geometry">
            <mxPoint x="510" y="160" as="sourcePoint" />
            <mxPoint x="560" y="110" as="targetPoint" />
          </mxGeometry>
        </mxCell>
        <mxCell id="4W57FgkTOTyh-o_fhP_0-25" value="" style="endArrow=none;html=1;entryX=1;entryY=0.5;entryDx=0;entryDy=0;exitX=0.008;exitY=0.15;exitDx=0;exitDy=0;exitPerimeter=0;" edge="1" parent="1" source="4W57FgkTOTyh-o_fhP_0-1" target="4W57FgkTOTyh-o_fhP_0-2">
          <mxGeometry width="50" height="50" relative="1" as="geometry">
            <mxPoint x="558.1818181818182" y="175" as="sourcePoint" />
            <mxPoint x="517.4004437169724" y="118.92561011083717" as="targetPoint" />
          </mxGeometry>
        </mxCell>
        <mxCell id="4W57FgkTOTyh-o_fhP_0-26" value="" style="endArrow=none;html=1;entryX=0.371;entryY=0.983;entryDx=0;entryDy=0;entryPerimeter=0;exitX=0.75;exitY=0;exitDx=0;exitDy=0;" edge="1" parent="1" source="4W57FgkTOTyh-o_fhP_0-1" target="4W57FgkTOTyh-o_fhP_0-4">
          <mxGeometry width="50" height="50" relative="1" as="geometry">
            <mxPoint x="568.1818181818182" y="185" as="sourcePoint" />
            <mxPoint x="527.4004437169724" y="128.92561011083717" as="targetPoint" />
          </mxGeometry>
        </mxCell>
        <mxCell id="4W57FgkTOTyh-o_fhP_0-27" value="" style="endArrow=none;html=1;entryX=0;entryY=0.5;entryDx=0;entryDy=0;exitX=1;exitY=0.5;exitDx=0;exitDy=0;" edge="1" parent="1" source="4W57FgkTOTyh-o_fhP_0-1" target="4W57FgkTOTyh-o_fhP_0-5">
          <mxGeometry width="50" height="50" relative="1" as="geometry">
            <mxPoint x="578.1818181818182" y="195" as="sourcePoint" />
            <mxPoint x="537.4004437169724" y="138.92561011083717" as="targetPoint" />
          </mxGeometry>
        </mxCell>
        <mxCell id="4W57FgkTOTyh-o_fhP_0-28" value="" style="endArrow=none;html=1;entryX=1.008;entryY=0.709;entryDx=0;entryDy=0;entryPerimeter=0;exitX=0;exitY=0;exitDx=0;exitDy=0;" edge="1" parent="1" source="4W57FgkTOTyh-o_fhP_0-7" target="4W57FgkTOTyh-o_fhP_0-11">
          <mxGeometry width="50" height="50" relative="1" as="geometry">
            <mxPoint x="350.00181818181824" y="270" as="sourcePoint" />
            <mxPoint x="309.2204437169724" y="213.92561011083717" as="targetPoint" />
          </mxGeometry>
        </mxCell>
        <mxCell id="4W57FgkTOTyh-o_fhP_0-29" value="" style="endArrow=none;html=1;entryX=1;entryY=0.5;entryDx=0;entryDy=0;exitX=0;exitY=0.5;exitDx=0;exitDy=0;" edge="1" parent="1" source="4W57FgkTOTyh-o_fhP_0-7" target="4W57FgkTOTyh-o_fhP_0-10">
          <mxGeometry width="50" height="50" relative="1" as="geometry">
            <mxPoint x="360.0018181818182" y="280" as="sourcePoint" />
            <mxPoint x="319.22044371697234" y="223.92561011083717" as="targetPoint" />
          </mxGeometry>
        </mxCell>
        <mxCell id="4W57FgkTOTyh-o_fhP_0-30" value="" style="endArrow=none;html=1;entryX=1;entryY=0.5;entryDx=0;entryDy=0;exitX=0;exitY=1;exitDx=0;exitDy=0;" edge="1" parent="1" source="4W57FgkTOTyh-o_fhP_0-7" target="4W57FgkTOTyh-o_fhP_0-9">
          <mxGeometry width="50" height="50" relative="1" as="geometry">
            <mxPoint x="370.0018181818182" y="290" as="sourcePoint" />
            <mxPoint x="329.22044371697234" y="233.92561011083717" as="targetPoint" />
          </mxGeometry>
        </mxCell>
        <mxCell id="4W57FgkTOTyh-o_fhP_0-31" value="" style="endArrow=none;html=1;exitX=0;exitY=0.25;exitDx=0;exitDy=0;entryX=1;entryY=0;entryDx=0;entryDy=0;" edge="1" parent="1" source="4W57FgkTOTyh-o_fhP_0-12" target="4W57FgkTOTyh-o_fhP_0-13">
          <mxGeometry width="50" height="50" relative="1" as="geometry">
            <mxPoint x="390" y="405" as="sourcePoint" />
            <mxPoint x="330" y="430" as="targetPoint" />
          </mxGeometry>
        </mxCell>
        <mxCell id="4W57FgkTOTyh-o_fhP_0-33" value="" style="endArrow=none;html=1;entryX=0.4;entryY=0;entryDx=0;entryDy=0;entryPerimeter=0;" edge="1" parent="1" source="4W57FgkTOTyh-o_fhP_0-12" target="4W57FgkTOTyh-o_fhP_0-16">
          <mxGeometry width="50" height="50" relative="1" as="geometry">
            <mxPoint x="410" y="425" as="sourcePoint" />
            <mxPoint x="350" y="450" as="targetPoint" />
          </mxGeometry>
        </mxCell>
        <mxCell id="4W57FgkTOTyh-o_fhP_0-34" value="" style="endArrow=none;html=1;exitX=0;exitY=0;exitDx=0;exitDy=0;entryX=0.892;entryY=0.983;entryDx=0;entryDy=0;entryPerimeter=0;" edge="1" parent="1" source="4W57FgkTOTyh-o_fhP_0-17" target="4W57FgkTOTyh-o_fhP_0-12">
          <mxGeometry width="50" height="50" relative="1" as="geometry">
            <mxPoint x="420" y="435" as="sourcePoint" />
            <mxPoint x="360" y="460" as="targetPoint" />
          </mxGeometry>
        </mxCell>
        <mxCell id="4W57FgkTOTyh-o_fhP_0-37" value="" style="endArrow=none;html=1;exitX=0.5;exitY=0;exitDx=0;exitDy=0;entryX=0.083;entryY=1.05;entryDx=0;entryDy=0;entryPerimeter=0;" edge="1" parent="1" source="4W57FgkTOTyh-o_fhP_0-20" target="4W57FgkTOTyh-o_fhP_0-18">
          <mxGeometry width="50" height="50" relative="1" as="geometry">
            <mxPoint x="600.5335931288071" y="560.0023304703362" as="sourcePoint" />
            <mxPoint x="560" y="481.66" as="targetPoint" />
          </mxGeometry>
        </mxCell>
        <mxCell id="4W57FgkTOTyh-o_fhP_0-38" value="" style="endArrow=none;html=1;exitX=0.5;exitY=0;exitDx=0;exitDy=0;entryX=0.5;entryY=1;entryDx=0;entryDy=0;" edge="1" parent="1" source="4W57FgkTOTyh-o_fhP_0-21" target="4W57FgkTOTyh-o_fhP_0-18">
          <mxGeometry width="50" height="50" relative="1" as="geometry">
            <mxPoint x="610.5335931288071" y="570.0023304703363" as="sourcePoint" />
            <mxPoint x="570" y="491.6600000000001" as="targetPoint" />
          </mxGeometry>
        </mxCell>
        <mxCell id="4W57FgkTOTyh-o_fhP_0-40" value="" style="shape=link;html=1;" edge="1" parent="1" source="4W57FgkTOTyh-o_fhP_0-1">
          <mxGeometry width="100" relative="1" as="geometry">
            <mxPoint x="530" y="410" as="sourcePoint" />
            <mxPoint x="570" y="280" as="targetPoint" />
          </mxGeometry>
        </mxCell>
        <mxCell id="4W57FgkTOTyh-o_fhP_0-41" value="O" style="ellipse;whiteSpace=wrap;html=1;" vertex="1" parent="1">
          <mxGeometry x="550" y="270" width="40" height="35" as="geometry" />
        </mxCell>
        <mxCell id="4W57FgkTOTyh-o_fhP_0-42" value="" style="endArrow=none;html=1;" edge="1" parent="1" source="4W57FgkTOTyh-o_fhP_0-41">
          <mxGeometry width="50" height="50" relative="1" as="geometry">
            <mxPoint x="600" y="297.08" as="sourcePoint" />
            <mxPoint x="660" y="297.08" as="targetPoint" />
          </mxGeometry>
        </mxCell>
        <mxCell id="4W57FgkTOTyh-o_fhP_0-43" value="" style="endArrow=none;html=1;entryX=0.5;entryY=1;entryDx=0;entryDy=0;exitX=0.5;exitY=0;exitDx=0;exitDy=0;" edge="1" parent="1" source="4W57FgkTOTyh-o_fhP_0-6" target="4W57FgkTOTyh-o_fhP_0-41">
          <mxGeometry width="50" height="50" relative="1" as="geometry">
            <mxPoint x="490" y="340" as="sourcePoint" />
            <mxPoint x="540" y="290" as="targetPoint" />
          </mxGeometry>
        </mxCell>
        <mxCell id="4W57FgkTOTyh-o_fhP_0-44" value="" style="endArrow=halfCircle;html=1;exitX=0;exitY=0.25;exitDx=0;exitDy=0;endFill=0;" edge="1" parent="1" source="4W57FgkTOTyh-o_fhP_0-8">
          <mxGeometry width="50" height="50" relative="1" as="geometry">
            <mxPoint x="500" y="350" as="sourcePoint" />
            <mxPoint x="650" y="290" as="targetPoint" />
            <Array as="points">
              <mxPoint x="660" y="300" />
            </Array>
          </mxGeometry>
        </mxCell>
        <mxCell id="4W57FgkTOTyh-o_fhP_0-45" value="" style="endArrow=halfCircle;html=1;exitX=1;exitY=0.5;exitDx=0;exitDy=0;endFill=0;" edge="1" parent="1" source="4W57FgkTOTyh-o_fhP_0-7">
          <mxGeometry width="50" height="50" relative="1" as="geometry">
            <mxPoint x="550" y="287" as="sourcePoint" />
            <mxPoint x="510" y="300" as="targetPoint" />
          </mxGeometry>
        </mxCell>
        <mxCell id="4W57FgkTOTyh-o_fhP_0-46" value="" style="endArrow=none;html=1;entryX=0;entryY=0.5;entryDx=0;entryDy=0;" edge="1" parent="1" target="4W57FgkTOTyh-o_fhP_0-41">
          <mxGeometry width="50" height="50" relative="1" as="geometry">
            <mxPoint x="500" y="300" as="sourcePoint" />
            <mxPoint x="660" y="298" as="targetPoint" />
          </mxGeometry>
        </mxCell>
        <mxCell id="4W57FgkTOTyh-o_fhP_0-48" value="" style="endArrow=halfCircle;html=1;endFill=0;" edge="1" parent="1">
          <mxGeometry width="50" height="50" relative="1" as="geometry">
            <mxPoint x="570" y="360" as="sourcePoint" />
            <mxPoint x="570" y="330" as="targetPoint" />
          </mxGeometry>
        </mxCell>
        <mxCell id="4W57FgkTOTyh-o_fhP_0-49" value="Ansat kan have en privat virksomhed" style="shape=note;size=20;whiteSpace=wrap;html=1;" vertex="1" parent="1">
          <mxGeometry x="860" y="300" width="100" height="100" as="geometry" />
        </mxCell>
        <mxCell id="4W57FgkTOTyh-o_fhP_0-50" value="" style="endArrow=none;html=1;entryX=0.408;entryY=-0.017;entryDx=0;entryDy=0;exitX=0.5;exitY=1;exitDx=0;exitDy=0;entryPerimeter=0;" edge="1" parent="1" source="4W57FgkTOTyh-o_fhP_0-7" target="4W57FgkTOTyh-o_fhP_0-12">
          <mxGeometry width="50" height="50" relative="1" as="geometry">
            <mxPoint x="340" y="350" as="sourcePoint" />
            <mxPoint x="280" y="385" as="targetPoint" />
          </mxGeometry>
        </mxCell>
        <mxCell id="4W57FgkTOTyh-o_fhP_0-51" value="" style="endArrow=none;html=1;entryX=0.5;entryY=0;entryDx=0;entryDy=0;exitX=0;exitY=0.5;exitDx=0;exitDy=0;" edge="1" parent="1" source="4W57FgkTOTyh-o_fhP_0-6" target="4W57FgkTOTyh-o_fhP_0-12">
          <mxGeometry width="50" height="50" relative="1" as="geometry">
            <mxPoint x="350" y="360" as="sourcePoint" />
            <mxPoint x="290" y="395" as="targetPoint" />
          </mxGeometry>
        </mxCell>
        <mxCell id="4W57FgkTOTyh-o_fhP_0-53" value="" style="endArrow=none;html=1;entryX=0;entryY=1;entryDx=0;entryDy=0;exitX=1;exitY=0.75;exitDx=0;exitDy=0;" edge="1" parent="1" source="4W57FgkTOTyh-o_fhP_0-12" target="4W57FgkTOTyh-o_fhP_0-8">
          <mxGeometry width="50" height="50" relative="1" as="geometry">
            <mxPoint x="600" y="298" as="sourcePoint" />
            <mxPoint x="660" y="298" as="targetPoint" />
          </mxGeometry>
        </mxCell>
        <mxCell id="4W57FgkTOTyh-o_fhP_0-54" value="" style="endArrow=none;html=1;entryX=1;entryY=0;entryDx=0;entryDy=0;exitX=0;exitY=1;exitDx=0;exitDy=0;" edge="1" parent="1" source="4W57FgkTOTyh-o_fhP_0-12" target="4W57FgkTOTyh-o_fhP_0-22">
          <mxGeometry width="50" height="50" relative="1" as="geometry">
            <mxPoint x="440.4000000000001" y="510" as="sourcePoint" />
            <mxPoint x="418" y="580" as="targetPoint" />
          </mxGeometry>
        </mxCell>
        <mxCell id="4W57FgkTOTyh-o_fhP_0-55" value="" style="endArrow=none;html=1;entryX=0;entryY=0.5;entryDx=0;entryDy=0;exitX=1;exitY=1;exitDx=0;exitDy=0;" edge="1" parent="1" source="4W57FgkTOTyh-o_fhP_0-12" target="4W57FgkTOTyh-o_fhP_0-18">
          <mxGeometry width="50" height="50" relative="1" as="geometry">
            <mxPoint x="450.4000000000001" y="520" as="sourcePoint" />
            <mxPoint x="428" y="590" as="targetPoint" />
          </mxGeometry>
        </mxCell>
      </root>
    </mxGraphModel>
  </diagram>
</mxfile>
